<?xml version="1.0"?>
<svg xmlns="http://www.w3.org/2000/svg" xmlns:xlink="http://www.w3.org/1999/xlink" version="1.1" id="Capa_1" x="0px" y="0px" viewBox="0 0 512.007 512.007" style="enable-background:new 0 0 512.007 512.007;" xml:space="preserve" width="512px" height="512px"><g><g>
	<g>
		<g>
			<path d="M496.004,36.002h-480c-0.221-0.005-0.442-0.005-0.663,0c-8.653,0.183-15.52,7.347-15.337,16v56v80c0,4.418,3.582,8,8,8     h64v256c0.01,2.653,1.335,5.128,3.536,6.608l23.448,16c2.719,1.855,6.297,1.855,9.016,0l18.88-12.92l18.952,12.92     c2.713,1.865,6.295,1.865,9.008,0l18.944-12.92l18.952,12.92c2.719,1.855,6.297,1.855,9.016,0l18.944-12.92l18.952,12.92     c2.719,1.855,6.297,1.855,9.016,0l18.96-12.928l18.96,12.928c2.719,1.855,6.297,1.855,9.016,0l18.936-12.92l18.968,12.92     c2.713,1.865,6.295,1.865,9.008,0l18.976-12.928l18.968,12.936c2.717,1.851,6.291,1.851,9.008,0l19.024-12.944l19.016,12.944     c1.326,0.901,2.892,1.384,4.496,1.384c4.418,0,8-3.582,8-8v-272h64c4.418,0,8-3.582,8-8v-80v-56c0.005-0.221,0.005-0.442,0-0.663     C511.821,42.686,504.657,35.819,496.004,36.002z M496.004,52.002v48h-480v-48H496.004z M56.004,180.002v-24h16v24H56.004z      M413.004,445.386c-2.716-1.847-6.284-1.847-9,0l-19.008,12.936l-18.976-12.928c-2.719-1.855-6.297-1.855-9.016,0l-18.968,12.928     l-18.96-12.928c-2.719-1.855-6.297-1.855-9.016,0l-18.936,12.92l-18.96-12.92c-2.719-1.855-6.297-1.855-9.016,0l-18.96,12.928     l-18.96-12.928c-2.719-1.855-6.297-1.855-9.016,0l-18.944,12.92l-18.952-12.92c-2.719-1.855-6.297-1.855-9.016,0l-18.936,12.92     l-18.944-12.92c-2.719-1.855-6.297-1.855-9.016,0l-18.944,12.92l-15.456-10.536v-27.776h168v-16h-168v-248h336v248h-24v16h24     v32.88L413.004,445.386z M440.004,156.002h16v24h-16V156.002z M496.004,180.002h-24v-32c0-4.418-3.582-8-8-8h-416     c-4.418,0-8,3.582-8,8v32h-24v-64h480V180.002z" data-original="#000000" class="active-path" data-old_color="#262626" fill="#2D2D2D"/>
			<path d="M336.004,220.002h16c13.255,0,24,10.745,24,24h16c-0.026-22.08-17.92-39.974-40-40v-24h-16v24c-22.091,0-40,17.909-40,40     s17.909,40,40,40h16c13.255,0,24,10.745,24,24s-10.745,24-24,24h-16c-13.255,0-24-10.745-24-24h-16     c0.026,22.08,17.92,39.974,40,40v24h16v-24c22.091,0,40-17.909,40-40c0-22.091-17.909-40-40-40h-16c-13.255,0-24-10.745-24-24     S322.749,220.002,336.004,220.002z" data-original="#000000" class="active-path" data-old_color="#262626" fill="#2D2D2D"/>
			<rect x="120.004" y="348.002" width="16" height="16" data-original="#000000" class="active-path" data-old_color="#262626" fill="#2D2D2D"/>
			<rect x="272.004" y="404.002" width="80" height="16" data-original="#000000" class="active-path" data-old_color="#262626" fill="#2D2D2D"/>
			<rect x="368.004" y="404.002" width="16" height="16" data-original="#000000" class="active-path" data-old_color="#262626" fill="#2D2D2D"/>
			<path d="M256.004,180.002h-128c-4.418,0-8,3.582-8,8v32c0,4.418,3.582,8,8,8h128c4.418,0,8-3.582,8-8v-32     C264.004,183.584,260.422,180.002,256.004,180.002z M248.004,212.002h-112v-16h112V212.002z" data-original="#000000" class="active-path" data-old_color="#262626" fill="#2D2D2D"/>
			<rect x="120.004" y="252.002" width="112" height="16" data-original="#000000" class="active-path" data-old_color="#262626" fill="#2D2D2D"/>
			<rect x="120.004" y="300.002" width="144" height="16" data-original="#000000" class="active-path" data-old_color="#262626" fill="#2D2D2D"/>
			<rect x="152.004" y="348.002" width="112" height="16" data-original="#000000" class="active-path" data-old_color="#262626" fill="#2D2D2D"/>
		</g>
	</g>
</g></g> </svg>
